<svg width="1085" height="713" viewBox="0 0 1085 713" fill="none" xmlns="http://www.w3.org/2000/svg">
<path d="M155.726 120.51C144.229 108.51 137.751 24.8982 155.231 20.9311C172.712 16.9639 258.646 71.2909 270.144 83.291C281.641 95.2911 133.031 8.767 177.33 55.0026C159.85 58.9697 167.224 132.51 155.726 120.51Z" fill="url(#paint0_linear_79_491)"/>
<path d="M277.038 136.612C265.541 124.612 259.063 41.0003 276.544 37.0332C294.024 33.0661 379.958 87.393 391.456 99.3931C402.953 111.393 254.343 24.8691 298.642 71.1047C281.162 75.0719 288.536 148.612 277.038 136.612Z" fill="url(#paint1_linear_79_491)"/>
<path d="M51.7084 155.565C59.2073 142.837 167.028 77.6666 185.568 80.254C204.108 82.8414 195.731 151.281 188.232 164.009C180.733 176.736 185.21 63.985 156.317 113.024C137.777 110.437 44.2096 168.293 51.7084 155.565Z" fill="url(#paint2_linear_79_491)"/>
<path d="M336.592 314.094C325.094 302.094 318.616 218.482 336.097 214.515C353.577 210.548 439.511 264.875 451.009 276.875C462.506 288.875 313.896 202.351 358.195 248.586C340.715 252.553 348.089 326.094 336.592 314.094Z" fill="url(#paint3_linear_79_491)"/>
<path d="M457.903 330.196C446.406 318.196 439.928 234.584 457.409 230.617C474.889 226.65 560.823 280.977 572.321 292.977C583.818 304.977 435.208 218.453 479.507 264.688C462.027 268.656 469.401 342.196 457.903 330.196Z" fill="url(#paint4_linear_79_491)"/>
<path d="M232.573 349.149C240.072 336.421 347.892 271.25 366.433 273.838C384.973 276.425 376.595 344.865 369.097 357.592C361.598 370.32 366.075 257.569 337.182 306.608C318.642 304.02 225.074 361.877 232.573 349.149Z" fill="url(#paint5_linear_79_491)"/>
<path d="M1112.59 363.604C1086.44 367.253 915.741 357.287 910.424 348.264C905.108 339.241 1028.8 306.431 1054.95 302.781C1081.11 299.132 882.265 357.033 983.026 342.971C988.342 351.995 1138.74 359.954 1112.59 363.604Z" fill="url(#paint6_linear_79_491)"/>
<path d="M26.6977 314.803C45.5963 305.279 203.661 272.372 217.536 278.892C231.41 285.413 157.994 343.927 139.096 353.452C120.197 362.977 232.913 264.446 160.098 301.143C146.224 294.623 7.79908 324.328 26.6977 314.803Z" fill="url(#paint7_linear_79_491)"/>
<path d="M85.3015 406.653C95.4929 394.377 216.72 335.048 234.603 338.564C252.486 342.081 229.455 409.719 219.263 421.996C209.072 434.272 237.741 322.366 198.474 369.667C180.591 366.151 75.1101 418.93 85.3015 406.653Z" fill="url(#paint8_linear_79_491)"/>
<path d="M2.43534 244.311C21.3339 234.787 179.399 201.88 193.273 208.401C207.148 214.921 133.732 273.436 114.833 282.96C95.9349 292.485 208.651 193.954 135.836 230.652C121.961 224.131 -16.4632 253.836 2.43534 244.311Z" fill="url(#paint9_linear_79_491)"/>
<path d="M237.336 217.839C225.839 205.839 219.361 122.227 236.841 118.26C254.322 114.293 340.256 168.619 351.754 180.62C363.251 192.62 214.641 106.096 258.94 152.331C241.46 156.298 248.834 229.839 237.336 217.839Z" fill="url(#paint10_linear_79_491)"/>
<path d="M358.648 233.941C347.151 221.941 340.673 138.329 358.154 134.362C375.634 130.395 461.568 184.722 473.066 196.722C484.563 208.722 335.953 122.198 380.252 168.433C362.772 172.4 370.146 245.941 358.648 233.941Z" fill="url(#paint11_linear_79_491)"/>
<path d="M133.318 252.894C140.817 240.166 248.637 174.995 267.178 177.583C285.718 180.17 277.34 248.61 269.841 261.337C262.343 274.065 266.82 161.314 237.927 210.353C219.387 207.765 125.819 265.621 133.318 252.894Z" fill="url(#paint12_linear_79_491)"/>
<path d="M650.202 345.311C638.704 333.311 632.227 249.7 649.707 245.732C667.188 241.765 753.122 296.092 764.619 308.092C776.117 320.093 627.506 233.568 671.806 279.804C654.325 283.771 661.7 357.312 650.202 345.311Z" fill="url(#paint13_linear_79_491)"/>
<path d="M771.514 361.414C760.016 349.413 753.539 265.802 771.019 261.835C788.5 257.867 874.434 312.194 885.931 324.195C897.429 336.195 748.818 249.671 793.118 295.906C775.637 299.873 783.012 373.414 771.514 361.414Z" fill="url(#paint14_linear_79_491)"/>
<path d="M546.184 380.367C553.683 367.639 661.503 302.468 680.044 305.055C698.584 307.643 690.206 376.082 682.707 388.81C675.209 401.538 679.686 288.786 650.793 337.826C632.253 335.238 538.685 393.094 546.184 380.367Z" fill="url(#paint15_linear_79_491)"/>
<path d="M831.067 538.895C819.57 526.895 813.092 443.283 830.572 439.316C848.053 435.349 933.987 489.676 945.484 501.676C956.982 513.676 808.372 427.152 852.671 473.388C835.191 477.355 842.565 550.895 831.067 538.895Z" fill="url(#paint16_linear_79_491)"/>
<path d="M952.379 554.997C940.882 542.997 934.404 459.385 951.884 455.418C969.365 451.451 1055.3 505.778 1066.8 517.778C1078.29 529.778 929.684 443.254 973.983 489.49C956.503 493.457 963.877 566.997 952.379 554.997Z" fill="url(#paint17_linear_79_491)"/>
<path d="M727.049 573.95C734.548 561.222 842.368 496.052 860.908 498.639C879.449 501.226 871.071 569.666 863.572 582.394C856.073 595.121 860.551 482.37 831.658 531.409C813.118 528.822 719.55 586.678 727.049 573.95Z" fill="url(#paint18_linear_79_491)"/>
<path d="M1150.63 440.039C1124.48 443.689 953.783 433.723 948.467 424.7C943.15 415.676 1066.84 382.866 1093 379.217C1119.15 375.567 920.308 433.468 1021.07 419.407C1026.38 428.43 1176.78 436.39 1150.63 440.039Z" fill="url(#paint19_linear_79_491)"/>
<path d="M521.174 539.604C540.072 530.08 698.137 497.173 712.011 503.694C725.886 510.215 652.47 568.729 633.572 578.253C614.673 587.778 727.389 489.247 654.574 525.945C640.7 519.424 502.275 549.129 521.174 539.604Z" fill="url(#paint20_linear_79_491)"/>
<path d="M579.777 631.455C589.969 619.178 711.195 559.849 729.078 563.366C746.961 566.882 723.93 634.521 713.739 646.797C703.548 659.074 732.217 547.168 692.95 594.468C675.067 590.952 569.586 643.731 579.777 631.455Z" fill="url(#paint21_linear_79_491)"/>
<path d="M496.911 469.113C515.81 459.588 673.875 426.681 687.749 433.202C701.623 439.723 628.208 498.237 609.309 507.762C590.411 517.286 703.126 418.756 630.312 455.453C616.437 448.932 478.013 478.637 496.911 469.113Z" fill="url(#paint22_linear_79_491)"/>
<path d="M731.812 442.64C720.314 430.64 713.837 347.028 731.317 343.061C748.797 339.094 834.732 393.421 846.229 405.421C857.727 417.421 709.116 330.897 753.416 377.133C735.935 381.1 743.309 454.64 731.812 442.64Z" fill="url(#paint23_linear_79_491)"/>
<path d="M853.124 458.742C841.626 446.742 835.149 363.13 852.629 359.163C870.11 355.196 956.044 409.523 967.541 421.523C979.039 433.523 830.429 346.999 874.728 393.235C857.247 397.202 864.622 470.742 853.124 458.742Z" fill="url(#paint24_linear_79_491)"/>
<path d="M627.794 477.695C635.293 464.967 743.113 399.797 761.653 402.384C780.194 404.971 771.816 473.411 764.317 486.139C756.818 498.866 761.296 386.115 732.403 435.154C713.863 432.567 620.295 490.423 627.794 477.695Z" fill="url(#paint25_linear_79_491)"/>
<path d="M290.677 399.701C279.18 387.701 272.702 304.089 290.182 300.122C307.663 296.155 393.597 350.482 405.094 362.482C416.592 374.482 267.982 287.958 312.281 334.193C294.801 338.161 302.175 411.701 290.677 399.701Z" fill="url(#paint26_linear_79_491)"/>
<path d="M411.989 415.803C400.492 403.803 394.014 320.191 411.494 316.224C428.975 312.257 514.909 366.584 526.407 378.584C537.904 390.584 389.294 304.06 433.593 350.296C416.113 354.263 423.487 427.803 411.989 415.803Z" fill="url(#paint27_linear_79_491)"/>
<path d="M186.659 434.756C194.158 422.028 301.978 356.857 320.519 359.445C339.059 362.032 330.681 430.472 323.183 443.2C315.684 455.927 320.161 343.176 291.268 392.215C272.728 389.628 179.16 447.484 186.659 434.756Z" fill="url(#paint28_linear_79_491)"/>
<path d="M449.415 128.111C437.917 116.111 431.439 32.4995 448.92 28.5323C466.4 24.5652 552.334 78.8922 563.832 90.8923C575.33 102.892 426.719 16.3683 471.018 62.6039C453.538 66.571 460.912 140.111 449.415 128.111Z" fill="url(#paint29_linear_79_491)"/>
<path d="M592.854 609.387C581.357 597.387 574.879 513.775 592.359 509.808C609.84 505.841 695.774 560.168 707.272 572.168C718.769 584.168 570.159 497.644 614.458 543.879C596.978 547.846 604.352 621.387 592.854 609.387Z" fill="url(#paint30_linear_79_491)"/>
<path d="M367.524 628.34C375.023 615.612 482.843 550.441 501.384 553.028C519.924 555.616 511.546 624.055 504.047 636.783C496.549 649.511 501.026 536.76 472.133 585.799C453.593 583.211 360.025 641.067 367.524 628.34Z" fill="url(#paint31_linear_79_491)"/>
<path d="M791.105 494.429C764.953 498.078 594.258 488.112 588.942 479.089C583.625 470.066 707.32 437.256 733.471 433.606C759.623 429.957 560.783 487.858 661.544 473.796C666.86 482.82 817.257 490.779 791.105 494.429Z" fill="url(#paint32_linear_79_491)"/>
<path d="M161.649 593.994C180.547 584.469 338.612 551.562 352.486 558.083C366.361 564.604 292.945 623.118 274.047 632.643C255.148 642.167 367.864 543.637 295.049 580.334C281.175 573.813 142.75 603.518 161.649 593.994Z" fill="url(#paint33_linear_79_491)"/>
<path d="M220.252 685.844C230.444 673.568 351.67 614.239 369.553 617.755C387.437 621.272 364.406 688.91 354.214 701.187C344.023 713.463 372.692 601.557 333.425 648.858C315.542 645.341 210.061 698.121 220.252 685.844Z" fill="url(#paint34_linear_79_491)"/>
<path d="M137.386 523.502C156.285 513.978 314.35 481.071 328.224 487.592C342.099 494.112 268.683 552.627 249.784 562.151C230.886 571.676 343.602 473.145 270.787 509.843C256.912 503.322 118.488 533.027 137.386 523.502Z" fill="url(#paint35_linear_79_491)"/>
<path d="M372.287 497.029C360.789 485.029 354.312 401.418 371.792 397.451C389.273 393.483 475.207 447.81 486.704 459.81C498.202 471.811 349.591 385.286 393.891 431.522C376.41 435.489 383.785 509.03 372.287 497.029Z" fill="url(#paint36_linear_79_491)"/>
<path d="M493.599 513.132C482.102 501.132 475.624 417.52 493.104 413.553C510.585 409.586 596.519 463.912 608.016 475.913C619.514 487.913 470.904 401.389 515.203 447.624C497.722 451.591 505.097 525.132 493.599 513.132Z" fill="url(#paint37_linear_79_491)"/>
<path d="M268.269 532.085C275.768 519.357 383.588 454.186 402.128 456.773C420.669 459.361 412.291 527.8 404.792 540.528C397.293 553.256 401.771 440.504 372.878 489.544C354.338 486.956 260.77 544.812 268.269 532.085Z" fill="url(#paint38_linear_79_491)"/>
<path d="M585.512 0.296238C612.305 2.59545 756.748 47.9707 753.399 57.2151C750.049 66.4595 609.321 69.5584 582.529 67.2592C555.737 64.96 786.606 55.3413 683.377 46.4826C686.726 37.2382 558.72 -2.00298 585.512 0.296238Z" fill="url(#paint39_linear_79_491)"/>
<path d="M706.824 16.3984C733.617 18.6976 878.06 64.0729 874.711 73.3173C871.361 82.5617 730.633 85.6606 703.841 83.3614C677.049 81.0621 907.918 71.4435 804.689 62.5848C808.038 53.3404 680.032 14.0992 706.824 16.3984Z" fill="url(#paint40_linear_79_491)"/>
<path d="M622.238 41.0452C639.359 51.3351 687.206 131.7 672.217 137.608C657.227 143.515 546.841 100.92 529.72 90.6302C512.599 80.3403 699.804 146.797 633.838 107.15C648.828 101.243 605.117 30.7552 622.238 41.0452Z" fill="url(#paint41_linear_79_491)"/>
<path d="M766.377 193.88C793.17 196.179 937.613 241.554 934.264 250.799C930.915 260.043 790.186 263.142 763.394 260.843C736.602 258.544 967.471 248.925 864.242 240.066C867.592 230.822 739.585 191.581 766.377 193.88Z" fill="url(#paint42_linear_79_491)"/>
<path d="M887.689 209.982C914.481 212.281 1058.92 257.657 1055.58 266.901C1052.23 276.145 911.498 279.244 884.706 276.945C857.914 274.646 1088.78 265.027 985.554 256.169C988.903 246.924 860.897 207.683 887.689 209.982Z" fill="url(#paint43_linear_79_491)"/>
<path d="M803.103 234.629C820.224 244.919 868.071 325.284 853.081 331.191C838.092 337.099 727.706 294.504 710.585 284.214C693.464 273.924 880.669 340.38 814.703 300.734C829.692 294.826 785.982 224.339 803.103 234.629Z" fill="url(#paint44_linear_79_491)"/>
<path d="M940.428 201.006C949.285 188.487 1063.97 126.152 1082.2 129.208C1100.44 132.264 1084.71 200.396 1075.86 212.916C1067 225.435 1083.59 112.952 1049.47 161.188C1031.23 158.132 931.571 213.526 940.428 201.006Z" fill="url(#paint45_linear_79_491)"/>
<path d="M672.776 230.326C677.967 243.323 642.691 325.214 623.757 327.005C604.824 328.796 548.447 265.965 543.256 252.968C538.065 239.97 639.252 341.422 619.251 291.344C638.185 289.553 667.585 217.328 672.776 230.326Z" fill="url(#paint46_linear_79_491)"/>
<path d="M674.423 296.995C689.24 308.1 719.564 390.459 703.388 395.572C687.212 400.684 586.579 352.707 571.762 341.602C556.945 330.498 728.851 406.114 671.761 363.329C687.937 358.216 659.605 285.891 674.423 296.995Z" fill="url(#paint47_linear_79_491)"/>
<path d="M648.513 159.834C653.704 172.832 618.428 254.722 599.495 256.513C580.562 258.305 524.185 195.473 518.994 182.476C513.803 169.479 614.99 270.93 594.989 220.852C613.922 219.061 643.322 146.837 648.513 159.834Z" fill="url(#paint48_linear_79_491)"/>
<path d="M667.122 97.6248C693.914 99.924 838.358 145.299 835.008 154.544C831.659 163.788 690.931 166.887 664.139 164.588C637.347 162.289 868.216 152.67 764.987 143.811C768.336 134.567 640.33 95.3256 667.122 97.6248Z" fill="url(#paint49_linear_79_491)"/>
<path d="M788.434 113.727C815.227 116.026 959.67 161.401 956.321 170.646C952.971 179.89 812.243 182.989 785.451 180.69C758.659 178.391 989.528 168.772 886.299 159.913C889.648 150.669 761.642 111.428 788.434 113.727Z" fill="url(#paint50_linear_79_491)"/>
<path d="M703.848 138.374C720.969 148.664 768.816 229.029 753.826 234.936C738.837 240.844 628.451 198.249 611.33 187.959C594.209 177.669 781.414 244.125 715.448 204.479C730.437 198.571 686.727 128.084 703.848 138.374Z" fill="url(#paint51_linear_79_491)"/>
<defs>
<linearGradient id="paint0_linear_79_491" x1="218.844" y1="108.068" x2="196.922" y2="11.4696" gradientUnits="userSpaceOnUse">
<stop offset="0.225" stop-color="#219EBC"/>
<stop offset="0.54" stop-color="#8ECAE6"/>
<stop offset="1" stop-color="#FFF1DD"/>
</linearGradient>
<linearGradient id="paint1_linear_79_491" x1="340.157" y1="124.17" x2="318.234" y2="27.5718" gradientUnits="userSpaceOnUse">
<stop offset="0.225" stop-color="#219EBC"/>
<stop offset="0.54" stop-color="#8ECAE6"/>
<stop offset="1" stop-color="#FFF1DD"/>
</linearGradient>
<linearGradient id="paint2_linear_79_491" x1="116.116" y1="166.329" x2="129.225" y2="72.391" gradientUnits="userSpaceOnUse">
<stop offset="0.225" stop-color="#219EBC"/>
<stop offset="0.54" stop-color="#8ECAE6"/>
<stop offset="1" stop-color="#FFF1DD"/>
</linearGradient>
<linearGradient id="paint3_linear_79_491" x1="399.71" y1="301.652" x2="377.787" y2="205.053" gradientUnits="userSpaceOnUse">
<stop offset="0.225" stop-color="#219EBC"/>
<stop offset="0.54" stop-color="#8ECAE6"/>
<stop offset="1" stop-color="#FFF1DD"/>
</linearGradient>
<linearGradient id="paint4_linear_79_491" x1="521.022" y1="317.754" x2="499.099" y2="221.155" gradientUnits="userSpaceOnUse">
<stop offset="0.225" stop-color="#219EBC"/>
<stop offset="0.54" stop-color="#8ECAE6"/>
<stop offset="1" stop-color="#FFF1DD"/>
</linearGradient>
<linearGradient id="paint5_linear_79_491" x1="296.981" y1="359.912" x2="310.09" y2="265.975" gradientUnits="userSpaceOnUse">
<stop offset="0.225" stop-color="#219EBC"/>
<stop offset="0.54" stop-color="#8ECAE6"/>
<stop offset="1" stop-color="#FFF1DD"/>
</linearGradient>
<linearGradient id="paint6_linear_79_491" x1="1097.21" y1="331.317" x2="951.144" y2="417.377" gradientUnits="userSpaceOnUse">
<stop offset="0.225" stop-color="#219EBC"/>
<stop offset="0.54" stop-color="#8ECAE6"/>
<stop offset="1" stop-color="#FFF1DD"/>
</linearGradient>
<linearGradient id="paint7_linear_79_491" x1="73.1834" y1="339.023" x2="122.448" y2="234.202" gradientUnits="userSpaceOnUse">
<stop offset="0.225" stop-color="#219EBC"/>
<stop offset="0.54" stop-color="#8ECAE6"/>
<stop offset="1" stop-color="#FFF1DD"/>
</linearGradient>
<linearGradient id="paint8_linear_79_491" x1="147.044" y1="420.634" x2="165.841" y2="325.043" gradientUnits="userSpaceOnUse">
<stop offset="0.225" stop-color="#219EBC"/>
<stop offset="0.54" stop-color="#8ECAE6"/>
<stop offset="1" stop-color="#FFF1DD"/>
</linearGradient>
<linearGradient id="paint9_linear_79_491" x1="48.9211" y1="268.531" x2="98.1858" y2="163.711" gradientUnits="userSpaceOnUse">
<stop offset="0.225" stop-color="#219EBC"/>
<stop offset="0.54" stop-color="#8ECAE6"/>
<stop offset="1" stop-color="#FFF1DD"/>
</linearGradient>
<linearGradient id="paint10_linear_79_491" x1="300.454" y1="205.397" x2="278.532" y2="108.798" gradientUnits="userSpaceOnUse">
<stop offset="0.225" stop-color="#219EBC"/>
<stop offset="0.54" stop-color="#8ECAE6"/>
<stop offset="1" stop-color="#FFF1DD"/>
</linearGradient>
<linearGradient id="paint11_linear_79_491" x1="421.767" y1="221.499" x2="399.844" y2="124.9" gradientUnits="userSpaceOnUse">
<stop offset="0.225" stop-color="#219EBC"/>
<stop offset="0.54" stop-color="#8ECAE6"/>
<stop offset="1" stop-color="#FFF1DD"/>
</linearGradient>
<linearGradient id="paint12_linear_79_491" x1="197.726" y1="263.657" x2="210.835" y2="169.72" gradientUnits="userSpaceOnUse">
<stop offset="0.225" stop-color="#219EBC"/>
<stop offset="0.54" stop-color="#8ECAE6"/>
<stop offset="1" stop-color="#FFF1DD"/>
</linearGradient>
<linearGradient id="paint13_linear_79_491" x1="713.32" y1="332.87" x2="691.397" y2="236.271" gradientUnits="userSpaceOnUse">
<stop offset="0.225" stop-color="#219EBC"/>
<stop offset="0.54" stop-color="#8ECAE6"/>
<stop offset="1" stop-color="#FFF1DD"/>
</linearGradient>
<linearGradient id="paint14_linear_79_491" x1="834.632" y1="348.972" x2="812.709" y2="252.373" gradientUnits="userSpaceOnUse">
<stop offset="0.225" stop-color="#219EBC"/>
<stop offset="0.54" stop-color="#8ECAE6"/>
<stop offset="1" stop-color="#FFF1DD"/>
</linearGradient>
<linearGradient id="paint15_linear_79_491" x1="610.592" y1="391.13" x2="623.701" y2="297.192" gradientUnits="userSpaceOnUse">
<stop offset="0.225" stop-color="#219EBC"/>
<stop offset="0.54" stop-color="#8ECAE6"/>
<stop offset="1" stop-color="#FFF1DD"/>
</linearGradient>
<linearGradient id="paint16_linear_79_491" x1="894.185" y1="526.453" x2="872.262" y2="429.855" gradientUnits="userSpaceOnUse">
<stop offset="0.225" stop-color="#219EBC"/>
<stop offset="0.54" stop-color="#8ECAE6"/>
<stop offset="1" stop-color="#FFF1DD"/>
</linearGradient>
<linearGradient id="paint17_linear_79_491" x1="1015.5" y1="542.555" x2="993.574" y2="445.957" gradientUnits="userSpaceOnUse">
<stop offset="0.225" stop-color="#219EBC"/>
<stop offset="0.54" stop-color="#8ECAE6"/>
<stop offset="1" stop-color="#FFF1DD"/>
</linearGradient>
<linearGradient id="paint18_linear_79_491" x1="791.456" y1="584.714" x2="804.566" y2="490.776" gradientUnits="userSpaceOnUse">
<stop offset="0.225" stop-color="#219EBC"/>
<stop offset="0.54" stop-color="#8ECAE6"/>
<stop offset="1" stop-color="#FFF1DD"/>
</linearGradient>
<linearGradient id="paint19_linear_79_491" x1="1135.25" y1="407.752" x2="989.186" y2="493.812" gradientUnits="userSpaceOnUse">
<stop offset="0.225" stop-color="#219EBC"/>
<stop offset="0.54" stop-color="#8ECAE6"/>
<stop offset="1" stop-color="#FFF1DD"/>
</linearGradient>
<linearGradient id="paint20_linear_79_491" x1="567.659" y1="563.824" x2="616.924" y2="459.004" gradientUnits="userSpaceOnUse">
<stop offset="0.225" stop-color="#219EBC"/>
<stop offset="0.54" stop-color="#8ECAE6"/>
<stop offset="1" stop-color="#FFF1DD"/>
</linearGradient>
<linearGradient id="paint21_linear_79_491" x1="641.52" y1="645.436" x2="660.317" y2="549.845" gradientUnits="userSpaceOnUse">
<stop offset="0.225" stop-color="#219EBC"/>
<stop offset="0.54" stop-color="#8ECAE6"/>
<stop offset="1" stop-color="#FFF1DD"/>
</linearGradient>
<linearGradient id="paint22_linear_79_491" x1="543.397" y1="493.333" x2="592.662" y2="388.512" gradientUnits="userSpaceOnUse">
<stop offset="0.225" stop-color="#219EBC"/>
<stop offset="0.54" stop-color="#8ECAE6"/>
<stop offset="1" stop-color="#FFF1DD"/>
</linearGradient>
<linearGradient id="paint23_linear_79_491" x1="794.93" y1="430.198" x2="773.007" y2="333.6" gradientUnits="userSpaceOnUse">
<stop offset="0.225" stop-color="#219EBC"/>
<stop offset="0.54" stop-color="#8ECAE6"/>
<stop offset="1" stop-color="#FFF1DD"/>
</linearGradient>
<linearGradient id="paint24_linear_79_491" x1="916.242" y1="446.3" x2="894.319" y2="349.702" gradientUnits="userSpaceOnUse">
<stop offset="0.225" stop-color="#219EBC"/>
<stop offset="0.54" stop-color="#8ECAE6"/>
<stop offset="1" stop-color="#FFF1DD"/>
</linearGradient>
<linearGradient id="paint25_linear_79_491" x1="692.201" y1="488.459" x2="705.311" y2="394.521" gradientUnits="userSpaceOnUse">
<stop offset="0.225" stop-color="#219EBC"/>
<stop offset="0.54" stop-color="#8ECAE6"/>
<stop offset="1" stop-color="#FFF1DD"/>
</linearGradient>
<linearGradient id="paint26_linear_79_491" x1="353.795" y1="387.259" x2="331.872" y2="290.66" gradientUnits="userSpaceOnUse">
<stop offset="0.225" stop-color="#219EBC"/>
<stop offset="0.54" stop-color="#8ECAE6"/>
<stop offset="1" stop-color="#FFF1DD"/>
</linearGradient>
<linearGradient id="paint27_linear_79_491" x1="475.107" y1="403.361" x2="453.185" y2="306.763" gradientUnits="userSpaceOnUse">
<stop offset="0.225" stop-color="#219EBC"/>
<stop offset="0.54" stop-color="#8ECAE6"/>
<stop offset="1" stop-color="#FFF1DD"/>
</linearGradient>
<linearGradient id="paint28_linear_79_491" x1="251.067" y1="445.519" x2="264.176" y2="351.582" gradientUnits="userSpaceOnUse">
<stop offset="0.225" stop-color="#219EBC"/>
<stop offset="0.54" stop-color="#8ECAE6"/>
<stop offset="1" stop-color="#FFF1DD"/>
</linearGradient>
<linearGradient id="paint29_linear_79_491" x1="512.533" y1="115.669" x2="490.61" y2="19.0709" gradientUnits="userSpaceOnUse">
<stop offset="0.225" stop-color="#219EBC"/>
<stop offset="0.54" stop-color="#8ECAE6"/>
<stop offset="1" stop-color="#FFF1DD"/>
</linearGradient>
<linearGradient id="paint30_linear_79_491" x1="655.972" y1="596.945" x2="634.05" y2="500.346" gradientUnits="userSpaceOnUse">
<stop offset="0.225" stop-color="#219EBC"/>
<stop offset="0.54" stop-color="#8ECAE6"/>
<stop offset="1" stop-color="#FFF1DD"/>
</linearGradient>
<linearGradient id="paint31_linear_79_491" x1="431.932" y1="639.103" x2="445.041" y2="545.166" gradientUnits="userSpaceOnUse">
<stop offset="0.225" stop-color="#219EBC"/>
<stop offset="0.54" stop-color="#8ECAE6"/>
<stop offset="1" stop-color="#FFF1DD"/>
</linearGradient>
<linearGradient id="paint32_linear_79_491" x1="775.73" y1="462.142" x2="629.661" y2="548.202" gradientUnits="userSpaceOnUse">
<stop offset="0.225" stop-color="#219EBC"/>
<stop offset="0.54" stop-color="#8ECAE6"/>
<stop offset="1" stop-color="#FFF1DD"/>
</linearGradient>
<linearGradient id="paint33_linear_79_491" x1="208.134" y1="618.214" x2="257.399" y2="513.393" gradientUnits="userSpaceOnUse">
<stop offset="0.225" stop-color="#219EBC"/>
<stop offset="0.54" stop-color="#8ECAE6"/>
<stop offset="1" stop-color="#FFF1DD"/>
</linearGradient>
<linearGradient id="paint34_linear_79_491" x1="281.995" y1="699.825" x2="300.792" y2="604.234" gradientUnits="userSpaceOnUse">
<stop offset="0.225" stop-color="#219EBC"/>
<stop offset="0.54" stop-color="#8ECAE6"/>
<stop offset="1" stop-color="#FFF1DD"/>
</linearGradient>
<linearGradient id="paint35_linear_79_491" x1="183.872" y1="547.722" x2="233.137" y2="442.901" gradientUnits="userSpaceOnUse">
<stop offset="0.225" stop-color="#219EBC"/>
<stop offset="0.54" stop-color="#8ECAE6"/>
<stop offset="1" stop-color="#FFF1DD"/>
</linearGradient>
<linearGradient id="paint36_linear_79_491" x1="435.405" y1="484.588" x2="413.482" y2="387.989" gradientUnits="userSpaceOnUse">
<stop offset="0.225" stop-color="#219EBC"/>
<stop offset="0.54" stop-color="#8ECAE6"/>
<stop offset="1" stop-color="#FFF1DD"/>
</linearGradient>
<linearGradient id="paint37_linear_79_491" x1="556.717" y1="500.69" x2="534.794" y2="404.091" gradientUnits="userSpaceOnUse">
<stop offset="0.225" stop-color="#219EBC"/>
<stop offset="0.54" stop-color="#8ECAE6"/>
<stop offset="1" stop-color="#FFF1DD"/>
</linearGradient>
<linearGradient id="paint38_linear_79_491" x1="332.676" y1="542.848" x2="345.786" y2="448.91" gradientUnits="userSpaceOnUse">
<stop offset="0.225" stop-color="#219EBC"/>
<stop offset="0.54" stop-color="#8ECAE6"/>
<stop offset="1" stop-color="#FFF1DD"/>
</linearGradient>
<linearGradient id="paint39_linear_79_491" x1="570.25" y1="32.596" x2="740.032" y2="94.108" gradientUnits="userSpaceOnUse">
<stop offset="0.225" stop-color="#219EBC"/>
<stop offset="0.54" stop-color="#8ECAE6"/>
<stop offset="1" stop-color="#FFF1DD"/>
</linearGradient>
<linearGradient id="paint40_linear_79_491" x1="691.562" y1="48.6982" x2="861.344" y2="110.21" gradientUnits="userSpaceOnUse">
<stop offset="0.225" stop-color="#219EBC"/>
<stop offset="0.54" stop-color="#8ECAE6"/>
<stop offset="1" stop-color="#FFF1DD"/>
</linearGradient>
<linearGradient id="paint41_linear_79_491" x1="567.18" y1="60.5489" x2="607.588" y2="163.079" gradientUnits="userSpaceOnUse">
<stop offset="0.225" stop-color="#219EBC"/>
<stop offset="0.54" stop-color="#8ECAE6"/>
<stop offset="1" stop-color="#FFF1DD"/>
</linearGradient>
<linearGradient id="paint42_linear_79_491" x1="751.115" y1="226.18" x2="920.898" y2="287.692" gradientUnits="userSpaceOnUse">
<stop offset="0.225" stop-color="#219EBC"/>
<stop offset="0.54" stop-color="#8ECAE6"/>
<stop offset="1" stop-color="#FFF1DD"/>
</linearGradient>
<linearGradient id="paint43_linear_79_491" x1="872.427" y1="242.282" x2="1042.21" y2="303.794" gradientUnits="userSpaceOnUse">
<stop offset="0.225" stop-color="#219EBC"/>
<stop offset="0.54" stop-color="#8ECAE6"/>
<stop offset="1" stop-color="#FFF1DD"/>
</linearGradient>
<linearGradient id="paint44_linear_79_491" x1="748.044" y1="254.132" x2="788.453" y2="356.662" gradientUnits="userSpaceOnUse">
<stop offset="0.225" stop-color="#219EBC"/>
<stop offset="0.54" stop-color="#8ECAE6"/>
<stop offset="1" stop-color="#FFF1DD"/>
</linearGradient>
<linearGradient id="paint45_linear_79_491" x1="1003.59" y1="213.396" x2="1019.46" y2="118.693" gradientUnits="userSpaceOnUse">
<stop offset="0.225" stop-color="#219EBC"/>
<stop offset="0.54" stop-color="#8ECAE6"/>
<stop offset="1" stop-color="#FFF1DD"/>
</linearGradient>
<linearGradient id="paint46_linear_79_491" x1="605.348" y1="234.966" x2="614.141" y2="327.915" gradientUnits="userSpaceOnUse">
<stop offset="0.225" stop-color="#219EBC"/>
<stop offset="0.54" stop-color="#8ECAE6"/>
<stop offset="1" stop-color="#FFF1DD"/>
</linearGradient>
<linearGradient id="paint47_linear_79_491" x1="615.477" y1="313.591" x2="647.018" y2="413.388" gradientUnits="userSpaceOnUse">
<stop offset="0.225" stop-color="#219EBC"/>
<stop offset="0.54" stop-color="#8ECAE6"/>
<stop offset="1" stop-color="#FFF1DD"/>
</linearGradient>
<linearGradient id="paint48_linear_79_491" x1="581.086" y1="164.475" x2="589.879" y2="257.423" gradientUnits="userSpaceOnUse">
<stop offset="0.225" stop-color="#219EBC"/>
<stop offset="0.54" stop-color="#8ECAE6"/>
<stop offset="1" stop-color="#FFF1DD"/>
</linearGradient>
<linearGradient id="paint49_linear_79_491" x1="651.86" y1="129.925" x2="821.642" y2="191.437" gradientUnits="userSpaceOnUse">
<stop offset="0.225" stop-color="#219EBC"/>
<stop offset="0.54" stop-color="#8ECAE6"/>
<stop offset="1" stop-color="#FFF1DD"/>
</linearGradient>
<linearGradient id="paint50_linear_79_491" x1="773.172" y1="146.027" x2="942.954" y2="207.539" gradientUnits="userSpaceOnUse">
<stop offset="0.225" stop-color="#219EBC"/>
<stop offset="0.54" stop-color="#8ECAE6"/>
<stop offset="1" stop-color="#FFF1DD"/>
</linearGradient>
<linearGradient id="paint51_linear_79_491" x1="648.789" y1="157.877" x2="689.198" y2="260.407" gradientUnits="userSpaceOnUse">
<stop offset="0.225" stop-color="#219EBC"/>
<stop offset="0.54" stop-color="#8ECAE6"/>
<stop offset="1" stop-color="#FFF1DD"/>
</linearGradient>
</defs>
</svg>
